# xmcd CD database file
#
# Track frame offsets:
#	150
#	22740
#	54673
#	71633
#	90204
#	109754
#	149583
#	170855
#
# Disc length: 2729 seconds
#
# Revision: 0
# Processed by: cddbd v1.5.2PL0 Copyright (c) Steve Scherf et al.
# Submitted via: CDex 1.51
#
DISCID=690aa708
DTITLE=Todd,Sharpville - Porchlight CD 2
DYEAR=2010
DGENRE=Blues
TTITLE0=When The World`s Not Enough
TTITLE1=When The Blues Come Calling
TTITLE2=If That Ain`t Love What Is?
TTITLE3=Legacy Of Greed
TTITLE4=Whole Lotta Lady
TTITLE5=Misery
TTITLE6=Busted In Pieces
TTITLE7=Porchlight
EXTD=YEAR: 2010
EXTT0=
EXTT1=
EXTT2=
EXTT3=
EXTT4=
EXTT5=
EXTT6=
EXTT7=
PLAYORDER=
